<?xml version="1.0" encoding="utf-8"?>
<!-- Generator: Adobe Illustrator 22.0.1, SVG Export Plug-In . SVG Version: 6.00 Build 0)  -->
<svg version="1.1" id="레이어_1" xmlns="http://www.w3.org/2000/svg" xmlns:xlink="http://www.w3.org/1999/xlink" x="0px"
	 y="0px" viewBox="0 0 40 40" style="enable-background:new 0 0 40 40;" xml:space="preserve">
<style type="text/css">
	.st0{fill:#FFFFFF;}
</style>
<path id="Globe_1" class="st0" d="M20,0C9,0,0,9,0,20s9,20,20,20s20-9,20-20S31,0,20,0z M14.6,2.6c-0.4,0.4-0.8,0.9-1.1,1.4
	c0,0-0.1,0.1-0.1,0.1c-0.8,1.1-1.4,2.3-1.9,3.5c0,0.1-0.1,0.1-0.1,0.2S11.3,8,11.3,8.1c-1.1-0.5-2.1-1.2-3-1.9
	C10.1,4.6,12.3,3.4,14.6,2.6z M6.9,7.4c1.1,1,2.4,1.8,3.7,2.4c0,0.1-0.1,0.1-0.1,0.2c-0.5,1.4-0.8,2.9-1,4.4c0,0.2-0.1,0.4-0.1,0.6
	c-0.1,0.6-0.2,1.2-0.2,1.8c0,0.2,0,0.5-0.1,0.7c0,0.5,0,1-0.1,1.6H1.9C2.1,14.7,3.9,10.5,6.9,7.4z M1.9,20.9h7.3c0,0.5,0,1,0.1,1.6
	c0,0.2,0,0.5,0.1,0.7c0.1,0.6,0.1,1.2,0.2,1.8c0,0.2,0.1,0.4,0.1,0.6c0.2,1.5,0.6,3,1,4.4c0,0.1,0,0.1,0.1,0.2
	c-1.3,0.6-2.6,1.4-3.7,2.4C3.9,29.5,2.1,25.3,1.9,20.9z M8.3,33.9c0.9-0.8,1.9-1.4,3-1.9c0,0.1,0.1,0.2,0.1,0.2s0.1,0.1,0.1,0.2
	c0.5,1.2,1.2,2.4,1.9,3.5c0,0,0.1,0.1,0.1,0.1c0.3,0.5,0.7,0.9,1.1,1.4C12.3,36.6,10.1,35.4,8.3,33.9L8.3,33.9z M19.1,38.1
	c-2.5-0.5-4.7-3.1-6.2-6.9c2-0.7,4.1-1.1,6.2-1.2V38.1z M19.1,28.2c-2.3,0.1-4.6,0.5-6.8,1.3c-0.8-2.8-1.3-5.7-1.3-8.6h8.2
	L19.1,28.2L19.1,28.2z M19.1,19.1h-8.2c0.1-2.9,0.5-5.8,1.3-8.6c2.2,0.8,4.5,1.2,6.8,1.3L19.1,19.1L19.1,19.1z M19.1,10
	c-2.1-0.1-4.2-0.5-6.2-1.2c1.5-3.8,3.7-6.3,6.2-6.9V10L19.1,10z M38.1,19.1h-7.3c0-0.5,0-1-0.1-1.6c0-0.2,0-0.5-0.1-0.7
	c-0.1-0.6-0.1-1.2-0.2-1.8c0-0.2-0.1-0.4-0.1-0.6c-0.2-1.5-0.6-3-1-4.4c0-0.1,0-0.1-0.1-0.2c1.3-0.6,2.6-1.4,3.7-2.4
	C36.1,10.5,37.9,14.7,38.1,19.1z M31.7,6.1c-0.9,0.8-1.9,1.4-3,1.9c0-0.1-0.1-0.2-0.1-0.2s-0.1-0.1-0.1-0.2
	c-0.5-1.2-1.2-2.4-1.9-3.5c0,0-0.1-0.1-0.1-0.1c-0.3-0.5-0.7-0.9-1.1-1.4C27.7,3.4,29.9,4.6,31.7,6.1L31.7,6.1z M20.9,1.9
	c2.5,0.5,4.7,3.1,6.2,6.9c-2,0.7-4.1,1.1-6.2,1.2V1.9z M20.9,11.8c2.3-0.1,4.6-0.5,6.8-1.3c0.8,2.8,1.3,5.7,1.3,8.6h-8.2
	C20.9,19.1,20.9,11.8,20.9,11.8z M20.9,20.9h8.2c-0.1,2.9-0.5,5.8-1.3,8.6c-2.2-0.8-4.5-1.2-6.8-1.3L20.9,20.9L20.9,20.9z
	 M20.9,38.1V30c2.1,0.1,4.2,0.5,6.2,1.2C25.6,35,23.4,37.6,20.9,38.1z M25.4,37.4c0.4-0.4,0.8-0.9,1.1-1.4c0,0,0.1-0.1,0.1-0.1
	c0.8-1.1,1.4-2.3,1.9-3.5c0-0.1,0.1-0.1,0.1-0.2s0.1-0.2,0.1-0.2c1.1,0.5,2.1,1.2,3,1.9C29.9,35.4,27.7,36.6,25.4,37.4L25.4,37.4z
	 M33.1,32.6c-1.1-1-2.4-1.8-3.7-2.4c0-0.1,0-0.1,0.1-0.2c0.5-1.4,0.8-2.9,1-4.4c0-0.2,0.1-0.4,0.1-0.6c0.1-0.6,0.1-1.2,0.2-1.8
	c0-0.2,0-0.5,0.1-0.7c0-0.5,0-1,0.1-1.6h7.3C37.9,25.3,36.1,29.5,33.1,32.6z"/>
</svg>
